ply
format ascii 1.0
comment made by JavaPointCloud library
comment id:1 class:ceilling
element vertex 8
property double x
property double y
property double z
element face 6
property list uchar int vertex_index
end_header
-2.0249049308957736 -0.3698332988281967 1.99243
-2.0249049308957736 -0.3698332988281967 2.10327
0.02192159956425721 -2.564070004445326 1.99243
0.02192159956425721 -2.564070004445326 2.10327
7.481352559831416 8.497787950781856 1.99243
7.481352559831416 8.497787950781856 2.10327
9.528179090291447 6.3035512451647255 1.99243
9.528179090291447 6.3035512451647255 2.10327
4 0 2 3 1
4 2 6 7 3
4 6 4 5 7
4 4 0 1 5
4 1 3 7 5
4 0 4 6 2
