ply
format ascii 1.0
comment made by JavaPointCloud library
comment id:0 class:door
element vertex 8
property double x
property double y
property double z
element face 6
property list uchar int vertex_index
end_header
0.14721443002523837 -2.3072064623700497 -1.31274
0.14721443002523837 -2.3072064623700497 0.87622
0.2149917916437568 -2.3810948975771233 -1.31274
0.2149917916437568 -2.3810948975771233 0.87622
0.9563940573239214 -1.5649514659005814 -1.31274
0.9563940573239214 -1.5649514659005814 0.87622
1.0241714189424398 -1.6388399011076549 -1.31274
1.0241714189424398 -1.6388399011076549 0.87622
4 0 2 3 1
4 2 6 7 3
4 6 4 5 7
4 4 0 1 5
4 1 3 7 5
4 0 4 6 2
