ply
format ascii 1.0
comment made by JavaPointCloud library
comment id:2 class:ground
element vertex 8
property double x
property double y
property double z
element face 6
property list uchar int vertex_index
end_header
-2.0190208603952584 -0.3448065734508453 -1.32397
-2.0190208603952584 -0.3448065734508453 -1.2771
0.02707900394273266 -2.5558217033306043 -1.32397
0.02707900394273266 -2.5558217033306043 -1.2771
3.374602953473872 4.646517458984857 -1.32397
3.374602953473872 4.646517458984857 -1.2771
5.420702817811863 2.4355023291050966 -1.32397
5.420702817811863 2.4355023291050966 -1.2771
4 0 2 3 1
4 2 6 7 3
4 6 4 5 7
4 4 0 1 5
4 1 3 7 5
4 0 4 6 2
