ply
format ascii 1.0
comment made by JavaPointCloud library
comment id:6 class:wallExternalBox
element vertex 8
property double x
property double y
property double z
element face 6
property list uchar int vertex_index
end_header
-2.6975630080041224 -1.6701693673501148 -0.17163
-2.6975630080041224 -1.6701693673501148 0.87573
-1.9207596869183956 -2.550062474972451 -0.17163
-1.9207596869183956 -2.550062474972451 0.87573
-1.6686118969202166 -0.7617719342974915 -0.17163
-1.6686118969202166 -0.7617719342974915 0.87573
-0.89180857583449 -1.6416650419198282 -0.17163
-0.89180857583449 -1.6416650419198282 0.87573
4 0 2 3 1
4 2 6 7 3
4 6 4 5 7
4 4 0 1 5
4 1 3 7 5
4 0 4 6 2
