ply
format ascii 1.0
comment made by JavaPointCloud library
comment id:4 class:wall_far_away 
element vertex 8
property double x
property double y
property double z
element face 6
property list uchar int vertex_index
end_header
-7.797201456546361 -6.07199106871018 -0.02759
-7.797201456546361 -6.07199106871018 1.74146
-7.688941907090966 -5.971360547907682 -0.02759
-7.688941907090966 -5.971360547907682 1.74146
-6.592167034406969 -7.368381891083967 -0.02759
-6.592167034406969 -7.368381891083967 1.74146
-6.483907484951573 -7.267751370281468 -0.02759
-6.483907484951573 -7.267751370281468 1.74146
4 0 2 3 1
4 2 6 7 3
4 6 4 5 7
4 4 0 1 5
4 1 3 7 5
4 0 4 6 2
