ply
format ascii 1.0
comment made by JavaPointCloud library
comment id:3 class:wall
element vertex 8
property double x
property double y
property double z
element face 6
property list uchar int vertex_index
end_header
-2.020774731772911 -0.36425238004610105 -1.31421
-2.020774731772911 -0.36425238004610105 1.99097
-1.9612617626046227 -0.3116835471067063 -1.31421
-1.9612617626046227 -0.3116835471067063 1.99097
-0.04322287364318633 -2.603031066596894 -1.31421
-0.04322287364318633 -2.603031066596894 1.99097
0.016290095525101966 -2.550462233657499 -1.31421
0.016290095525101966 -2.550462233657499 1.99097
4 0 2 3 1
4 2 6 7 3
4 6 4 5 7
4 4 0 1 5
4 1 3 7 5
4 0 4 6 2
