ply
format ascii 1.0
comment made by JavaPointCloud library
comment id:7 class:wall3
element vertex 8
property double x
property double y
property double z
element face 6
property list uchar int vertex_index
end_header
-2.024833194876779 -0.33919296520271836 -1.31372
-2.024833194876779 -0.33919296520271836 1.99146
-1.7704592240266486 -0.6143998590697866 -1.31372
-1.7704592240266486 -0.6143998590697866 1.99146
7.027192837783461 8.02760255293117 -1.31372
7.027192837783461 8.02760255293117 1.99146
7.281566808633591 7.752395659064101 -1.31372
7.281566808633591 7.752395659064101 1.99146
4 0 2 3 1
4 2 6 7 3
4 6 4 5 7
4 4 0 1 5
4 1 3 7 5
4 0 4 6 2
