ply
format ascii 1.0
comment made by JavaPointCloud library
comment id:5 class:wall2
element vertex 8
property double x
property double y
property double z
element face 6
property list uchar int vertex_index
end_header
-0.046795154452337506 -2.4835147093035213 -1.31421
-0.046795154452337506 -2.4835147093035213 1.99146
0.035671771312333345 -2.5735354596012794 -1.31421
0.035671771312333345 -2.5735354596012794 1.99146
7.832587856771703 4.734693222853686 -1.31421
7.832587856771703 4.734693222853686 1.99146
7.915054782536373 4.644672472555928 -1.31421
7.915054782536373 4.644672472555928 1.99146
4 0 2 3 1
4 2 6 7 3
4 6 4 5 7
4 4 0 1 5
4 1 3 7 5
4 0 4 6 2
